<?xml version="1.0" encoding="UTF-8"?>
<svg width="72px" height="12px" viewBox="0 0 72 12" version="1.1" xmlns="http://www.w3.org/2000/svg" xmlns:xlink="http://www.w3.org/1999/xlink">
    <!-- Generator: Sketch 57.1 (83088) - https://sketch.com -->
    <title>Group 12</title>
    <desc>Created with Sketch.</desc>
    <g id="Page-5" stroke="none" stroke-width="1" fill="none" fill-rule="evenodd">
        <g id="1.-MW--Overview-Copy-27" transform="translate(-60.000000, -692.000000)">
            <g id="Group-7" transform="translate(59.000000, 691.000000)">
                <g id="Group-6">
                    <g id="Group-8">
                        <g id="Group-12" transform="translate(0.000000, -0.000000)">
                            <path d="M7.19999957,10.8564168 L4.37318625,12.3048763 C3.97997309,12.5063588 3.49787701,12.3509303 3.29639454,11.9577172 C3.21878448,11.8062534 3.19149999,11.6339859 3.21850666,11.4659525 L3.72254017,8.32989462 L3.72254017,8.32989462 L1.47143994,6.089034 C1.15830917,5.77732757 1.15715451,5.27079693 1.46886094,4.95766616 C1.58892872,4.83704974 1.7443335,4.75786704 1.9124883,4.73162673 L5.05081147,4.24189592 L5.05081147,4.24189592 L6.48636834,1.40850837 C6.68605604,1.01438072 7.16743849,0.856756 7.56156614,1.0564437 C7.71338216,1.13336242 7.83671209,1.25669235 7.91363081,1.40850837 L9.34918767,4.24189592 L9.34918767,4.24189592 L12.4875108,4.73162673 C12.9240554,4.79974888 13.2227208,5.20886208 13.1545986,5.64540664 C13.1283583,5.81356145 13.0491756,5.96896623 12.9285592,6.089034 L10.677459,8.32989462 L10.677459,8.32989462 L11.1814925,11.4659525 C11.2516042,11.9021819 10.9548071,12.3126525 10.5185776,12.3827642 C10.3505442,12.4097708 10.1782767,12.3824863 10.0268129,12.3048763 L7.19999957,10.8564168 L7.19999957,10.8564168 Z" id="Star" fill="#FFBB00"></path>
                            <path d="M21.5999987,10.8564168 L18.7731854,12.3048763 C18.3799722,12.5063588 17.8978762,12.3509303 17.6963937,11.9577172 C17.6187836,11.8062534 17.5914991,11.6339859 17.6185058,11.4659525 L18.1225393,8.32989462 L18.1225393,8.32989462 L15.8714391,6.089034 C15.5583083,5.77732757 15.5571537,5.27079693 15.8688601,4.95766616 C15.9889279,4.83704974 16.1443326,4.75786704 16.3124874,4.73162673 L19.4508106,4.24189592 L19.4508106,4.24189592 L20.8863675,1.40850837 C21.0860552,1.01438072 21.5674376,0.856756 21.9615653,1.0564437 C22.1133813,1.13336242 22.2367112,1.25669235 22.3136299,1.40850837 L23.7491868,4.24189592 L23.7491868,4.24189592 L26.88751,4.73162673 C27.3240545,4.79974888 27.6227199,5.20886208 27.5545978,5.64540664 C27.5283575,5.81356145 27.4491748,5.96896623 27.3285583,6.089034 L25.0774581,8.32989462 L25.0774581,8.32989462 L25.5814916,11.4659525 C25.6516033,11.9021819 25.3548062,12.3126525 24.9185767,12.3827642 C24.7505433,12.4097708 24.5782758,12.3824863 24.426812,12.3048763 L21.5999987,10.8564168 L21.5999987,10.8564168 Z" id="Star-Copy" fill="#FFBB00"></path>
                            <path d="M35.9999979,10.8564168 L33.1731845,12.3048763 C32.7799714,12.5063588 32.2978753,12.3509303 32.0963928,11.9577172 C32.0187828,11.8062534 31.9914983,11.6339859 32.0185049,11.4659525 L32.5225385,8.32989462 L32.5225385,8.32989462 L30.2714382,6.089034 C29.9583075,5.77732757 29.9571528,5.27079693 30.2688592,4.95766616 C30.388927,4.83704974 30.5443318,4.75786704 30.7124866,4.73162673 L33.8508098,4.24189592 L33.8508098,4.24189592 L35.2863666,1.40850837 C35.4860543,1.01438072 35.9674368,0.856756 36.3615644,1.0564437 C36.5133804,1.13336242 36.6367104,1.25669235 36.7136291,1.40850837 L38.149186,4.24189592 L38.149186,4.24189592 L41.2875091,4.73162673 C41.7240537,4.79974888 42.0227191,5.20886208 41.9545969,5.64540664 C41.9283566,5.81356145 41.8491739,5.96896623 41.7285575,6.089034 L39.4774573,8.32989462 L39.4774573,8.32989462 L39.9814908,11.4659525 C40.0516024,11.9021819 39.7548053,12.3126525 39.3185759,12.3827642 C39.1505425,12.4097708 38.9782749,12.3824863 38.8268112,12.3048763 L35.9999979,10.8564168 L35.9999979,10.8564168 Z" id="Star-Copy-2" fill="#FFBB00"></path>
                            <path d="M50.399997,10.8564168 L47.5731837,12.3048763 C47.1799705,12.5063588 46.6978744,12.3509303 46.496392,11.9577172 C46.4187819,11.8062534 46.3914974,11.6339859 46.4185041,11.4659525 L46.9225376,8.32989462 L46.9225376,8.32989462 L44.6714374,6.089034 C44.3583066,5.77732757 44.3571519,5.27079693 44.6688584,4.95766616 C44.7889261,4.83704974 44.9443309,4.75786704 45.1124857,4.73162673 L48.2508089,4.24189592 L48.2508089,4.24189592 L49.6863658,1.40850837 C49.8860535,1.01438072 50.3674359,0.856756 50.7615636,1.0564437 C50.9133796,1.13336242 51.0367095,1.25669235 51.1136282,1.40850837 L52.5491851,4.24189592 L52.5491851,4.24189592 L55.6875083,4.73162673 C56.1240528,4.79974888 56.4227182,5.20886208 56.3545961,5.64540664 C56.3283557,5.81356145 56.249173,5.96896623 56.1285566,6.089034 L53.8774564,8.32989462 L53.8774564,8.32989462 L54.3814899,11.4659525 C54.4516016,11.9021819 54.1548045,12.3126525 53.718575,12.3827642 C53.5505416,12.4097708 53.3782741,12.3824863 53.2268103,12.3048763 L50.399997,10.8564168 L50.399997,10.8564168 Z" id="Star-Copy-3" fill="#FFBB00"></path>
                            <path d="M66.399996,10.8564168 L63.5731827,12.3048763 C63.1799696,12.5063588 62.6978735,12.3509303 62.496391,11.9577172 C62.418781,11.8062534 62.3914965,11.6339859 62.4185031,11.4659525 L62.9225366,8.32989462 L62.9225366,8.32989462 L60.6714364,6.089034 C60.3583056,5.77732757 60.357151,5.27079693 60.6688574,4.95766616 C60.7889252,4.83704974 60.94433,4.75786704 61.1124848,4.73162673 L64.2508079,4.24189592 L64.2508079,4.24189592 L65.6863648,1.40850837 C65.8860525,1.01438072 66.367435,0.856756 66.7615626,1.0564437 C66.9133786,1.13336242 67.0367086,1.25669235 67.1136273,1.40850837 L68.5491841,4.24189592 L68.5491841,4.24189592 L71.6875073,4.73162673 C72.1240519,4.79974888 72.4227172,5.20886208 72.3545951,5.64540664 C72.3283548,5.81356145 72.2491721,5.96896623 72.1285557,6.089034 L69.8774554,8.32989462 L69.8774554,8.32989462 L70.381489,11.4659525 C70.4516006,11.9021819 70.1548035,12.3126525 69.7185741,12.3827642 C69.5505407,12.4097708 69.3782731,12.3824863 69.2268094,12.3048763 L66.399996,10.8564168 L66.399996,10.8564168 Z" id="Star-Copy-5" fill="#DDDDDD"></path>
                            <path d="M66.399996,10.8564168 L63.5731827,12.3048763 C63.1799696,12.5063588 62.6978735,12.3509303 62.496391,11.9577172 C62.418781,11.8062534 62.3914965,11.6339859 62.4185031,11.4659525 L62.9225366,8.32989462 L62.9225366,8.32989462 L60.6714364,6.089034 C60.3583056,5.77732757 60.357151,5.27079693 60.6688574,4.95766616 C60.7889252,4.83704974 60.94433,4.75786704 61.1124848,4.73162673 L64.2508079,4.24189592 L64.2508079,4.24189592 L65.7945436,1.19499377 C65.8744186,1.03734271 66.0669716,0.974292819 66.2246227,1.0541679 C66.3321981,1.10867179 66.399996,1.21902542 66.399996,1.33962039 L66.399996,10.8564168 L66.399996,10.8564168 Z" id="Star-Copy-4" fill="#FFBB00"></path>
                        </g>
                    </g>
                </g>
            </g>
        </g>
    </g>
</svg>